<?xml version="1.0" encoding="UTF-8"?>
<svg version="1.1" xmlns="http://www.w3.org/2000/svg" width="512" height="593">
<path d="M0 0 C0.96615234 0.00418945 1.93230469 0.00837891 2.92773438 0.01269531 C12.4153073 0.16263342 21.68048651 0.93153854 29.1875 7.3125 C35.44149697 14.07357781 34.37946311 21.0090153 34.375 29.8125 C34.37564453 31.11735352 34.37628906 32.42220703 34.37695312 33.76660156 C34.3319278 42.08196117 33.87422377 50.21047093 32.90576172 58.46337891 C31.45390203 71.09798368 32.06549722 83.66993298 33.1875 96.3125 C33.82816406 96.27769531 34.46882813 96.24289063 35.12890625 96.20703125 C44.18103013 95.9237308 50.95736259 98.96925211 58.1875 104.3125 C58.5175 104.9725 58.8475 105.6325 59.1875 106.3125 C61.72324127 106.91624792 64.26205172 107.27031126 66.83984375 107.65234375 C69.1875 108.3125 69.1875 108.3125 71.1875 111.3125 C72.38375 111.35375 73.58 111.395 74.8125 111.4375 C77.80644524 111.6905853 78.92574106 112.06487604 81.140625 114.16015625 C82.45497039 115.76034505 83.75922701 117.36885957 85.0546875 118.984375 C87.29123991 121.4257399 89.27982334 122.70279591 92.1875 124.25 C100.86459101 129.12252034 105.8226273 136.71346865 108.5703125 146.16015625 C109.92237628 153.06595039 110.07002305 160.00557469 107.9375 166.75 C106.76535214 170.3609432 106.76535214 170.3609432 108.9375 173.375 C109.68 174.344375 110.4225 175.31375 111.1875 176.3125 C112.95459054 181.07233983 113.291322 184.95114604 113.00683594 189.92163086 C112.45739734 197.15350825 112.45739734 197.15350825 114.59765625 203.875 C115.81540912 205.11602203 117.07131098 206.32081557 118.36328125 207.484375 C123.35454177 212.48632345 124.43336667 219.891483 124.6875 226.6875 C124.16219674 240.17028365 118.36570788 253.45285164 108.546875 262.8359375 C105.87704882 265.63837094 105.0407638 267.77367091 103.875 271.4375 C101.3782249 278.36251772 97.906151 283.69730531 93.1875 289.3125 C92.72859375 289.90417969 92.2696875 290.49585938 91.796875 291.10546875 C89.5587368 293.51214146 87.43644702 294.27915299 84.2421875 294.70703125 C77.24297295 294.92626419 71.70040142 293.71184518 65.1875 291.3125 C65.38085938 292.60800781 65.57421875 293.90351563 65.7734375 295.23828125 C75.36881537 360.32024293 75.36881537 360.32024293 61.4375 381.75 C58.4723106 386.65604065 58.98822123 391.15767384 59.19921875 396.74609375 C59.17210396 404.99802738 56.19594624 412.7259834 53.1875 420.3125 C52.51014783 422.30890639 51.83911065 424.30754414 51.1875 426.3125 C52.8375 426.3125 54.4875 426.3125 56.1875 426.3125 C58.56754336 429.97204035 58.1951341 432.51512848 57.5625 436.75 C57.46912354 437.3903418 57.37574707 438.03068359 57.27954102 438.69042969 C56.26382699 445.37570337 54.95435682 452.01506995 53.59716797 458.63842773 C51.38364682 469.69218563 51.02453335 480.61648002 51.05712891 491.85693359 C51.06252474 494.07265963 51.05713282 496.28818605 51.05078125 498.50390625 C51.05144158 499.93489627 51.0527218 501.36588617 51.0546875 502.796875 C51.05581543 504.07272461 51.05694336 505.34857422 51.05810547 506.66308594 C51.18738247 510.30918519 51.60409928 513.71708305 52.1875 517.3125 C52.83460938 517.52777344 53.48171875 517.74304688 54.1484375 517.96484375 C58.34101949 519.82402214 61.98858203 522.35832116 65.8125 524.875 C78.71920366 533.18535967 92.41252951 539.51143109 106.75830078 544.9309082 C110.71389957 546.47535042 113.49464965 547.99618183 116.1875 551.3125 C117.34432181 554.3202367 117.37097507 555.74796133 116.375 558.8125 C111.73260687 564.11809214 105.06160257 566.48795487 98.1875 567.3125 C91.04994358 567.6872435 84.01699023 567.48569244 76.93244934 566.61010742 C63.59866913 564.96421371 50.27572327 564.91631938 36.85864258 564.78076172 C0.9769759 564.38335148 0.9769759 564.38335148 -7.8125 559.3125 C-11.90684265 554.64165508 -12.52443004 548.95940104 -12.34765625 542.94140625 C-11.41439112 536.61291497 -9.3052746 530.66364997 -7.22265625 524.6328125 C-1.49867166 507.75261964 -6.06336042 491.08910456 -12.3125 475.125 C-17.80317907 460.95805341 -22.10006828 443.60417267 -19.8125 428.3125 C-18.484375 425.9296875 -18.484375 425.9296875 -16.8125 424.3125 C-13.625 424.0625 -13.625 424.0625 -10.8125 424.3125 C-10.72226562 423.58933594 -10.63203125 422.86617188 -10.5390625 422.12109375 C-9.67945314 418.79819519 -8.35477788 417.02343031 -6.1875 414.375 C-5.47335937 413.49972656 -4.75921875 412.62445313 -4.0234375 411.72265625 C-2.05463081 409.57644825 -0.16616753 407.9984945 2.1875 406.3125 C4.12151739 404.69786163 5.04333392 403.77457076 5.796875 401.359375 C6.33215752 392.61642717 2.70759202 383.57480171 0.1875 375.3125 C-0.34230469 375.993125 -0.87210937 376.67375 -1.41796875 377.375 C-4.20902291 380.79893594 -7.13522205 384.06228843 -10.125 387.3125 C-10.66833984 387.91578125 -11.21167969 388.5190625 -11.77148438 389.140625 C-15.46896072 393.15677404 -19.21333102 396.35469096 -23.8125 399.3125 C-24.4725 399.3125 -25.1325 399.3125 -25.8125 399.3125 C-25.874375 400.116875 -25.93625 400.92125 -26 401.75 C-27.0757134 406.46658951 -29.31591407 411.81591407 -32.8125 415.3125 C-32.93355599 416.70876652 -32.99210592 418.11056455 -33.0234375 419.51171875 C-33.04962158 420.38465576 -33.07580566 421.25759277 -33.1027832 422.15698242 C-33.14471802 423.56427612 -33.14471802 423.56427612 -33.1875 425 C-33.81305952 440.8452753 -37.49772162 453.85948268 -44.6875 467.9375 C-47.51502056 473.4796779 -50.0473241 479.05452121 -52.25 484.875 C-52.49669434 485.51711426 -52.74338867 486.15922852 -52.99755859 486.82080078 C-55.55142301 493.78439834 -55.97112754 500.73702121 -56.3125 508.0625 C-56.55603578 513.02491732 -56.84615696 517.93956002 -57.4375 522.875 C-58.34235105 532.36134168 -57.8392595 542.32101372 -55.25 551.5 C-53.444363 557.97168903 -52.75576682 564.64759228 -53.8125 571.3125 C-55.70886323 574.4775258 -57.02969371 575.96811225 -60.4140625 577.45703125 C-73.3295325 580.31044904 -87.28704768 581.19637385 -99.8125 576.3125 C-100.54855469 576.0340625 -101.28460938 575.755625 -102.04296875 575.46875 C-107.76404423 572.97852578 -112.00903913 568.91942173 -114.8125 563.3125 C-115.76089404 554.35717265 -114.06517349 546.93025132 -108.8671875 539.55078125 C-106.46427403 535.76367999 -105.09391522 532.04662837 -103.6875 527.8125 C-103.43613281 527.07902344 -103.18476563 526.34554687 -102.92578125 525.58984375 C-102.2118613 523.50041311 -101.50973842 521.40755133 -100.8125 519.3125 C-100.4621167 518.48596924 -100.1117334 517.65943848 -99.75073242 516.80786133 C-98.36681876 511.65212573 -98.47358169 506.60983256 -98.43359375 501.29296875 C-98.41659927 500.12099442 -98.3996048 498.94902008 -98.38209534 497.74153137 C-98.32908726 493.99440915 -98.28881083 490.24729392 -98.25 486.5 C-97.72916876 442.94655504 -97.72916876 442.94655504 -95 431.9375 C-94.82694336 431.19709473 -94.65388672 430.45668945 -94.47558594 429.69384766 C-93.03419198 423.73478741 -91.15942173 417.9800663 -88.8125 412.3125 C-90.0190625 411.631875 -90.0190625 411.631875 -91.25 410.9375 C-96.99872927 407.1140527 -101.27826334 401.3493068 -105.6640625 396.09375 C-118.64621787 380.68114545 -137.03566922 375.3406307 -156.58935547 373.47412109 C-160.03846286 373.22337333 -163.48963312 373.13167934 -166.94580078 373.02709961 C-184.04799179 372.50397041 -201.17829424 370.71588434 -216.8125 363.3125 C-217.73804688 362.89484375 -218.66359375 362.4771875 -219.6171875 362.046875 C-227.58726592 358.1182811 -233.57868801 352.51876938 -239.8125 346.3125 C-240.40933594 345.75046875 -241.00617188 345.1884375 -241.62109375 344.609375 C-245.29022281 340.83086811 -247.60009836 336.26542632 -250 331.625 C-250.33354492 330.98989502 -250.66708984 330.35479004 -251.01074219 329.70043945 C-255.97304359 319.65964982 -257.33544524 308.61707264 -258.88912964 297.6439209 C-261.63396408 278.49605469 -264.93183372 258.85415039 -278.8125 244.3125 C-282.49939178 246.27608057 -286.1586065 248.28840072 -289.8125 250.3125 C-290.50408203 250.69341797 -291.19566406 251.07433594 -291.90820312 251.46679688 C-304.19294459 258.27015763 -315.63630917 265.81415829 -326.8125 274.3125 C-327.45058594 274.79750977 -328.08867187 275.28251953 -328.74609375 275.78222656 C-337.33404056 282.35028102 -345.61680347 289.26398037 -353.8125 296.3125 C-354.57433594 296.96089844 -355.33617187 297.60929687 -356.12109375 298.27734375 C-360.35676135 301.91853168 -364.20755909 305.75826792 -367.953125 309.90625 C-369.8125 311.3125 -369.8125 311.3125 -371.921875 311.21875 C-373.8125 310.3125 -373.8125 310.3125 -375.8125 307.3125 C-379.67362859 283.56206948 -363.8474586 254.0487102 -350.50830078 235.52978516 C-321.40726884 196.11629551 -282.3735784 173.9039792 -239.8125 151.3125 C-239.05598145 150.91015137 -238.29946289 150.50780273 -237.52001953 150.09326172 C-226.59659531 144.32747966 -215.34049021 139.72309566 -203.8125 135.3125 C-202.39942825 134.76666052 -200.98651562 134.22040897 -199.57373047 133.67382812 C-174.13196533 123.84506149 -148.53366259 114.6981624 -122.21484375 107.48046875 C-121.24313232 107.21306885 -120.2714209 106.94566895 -119.27026367 106.67016602 C-117.5544988 106.20591479 -115.83489815 105.75543653 -114.1105957 105.32397461 C-108.73479994 103.89738614 -105.23200092 101.68987169 -100.8125 98.3125 C-96.81058768 96.75620076 -93.71323038 96.27371971 -89.5 96.5625 C-84.35473575 96.73750899 -81.40906848 94.40568466 -77.23046875 91.65234375 C-72.65979224 89.11964255 -68.68281078 89.86362541 -63.6875 91.0625 C-59.66874746 91.41195674 -58.0949716 89.54458069 -54.8125 87.3125 C-52.06589543 86.81721065 -49.57217595 86.49747828 -46.8125 86.3125 C-45.20754856 86.15356812 -43.60334546 85.98688985 -42 85.8125 C-40.90751953 85.70421875 -40.90751953 85.70421875 -39.79296875 85.59375 C-37.60697067 85.34382384 -37.60697067 85.34382384 -34.8125 84.3125 C-32.73433843 75.05354802 -32.0450449 66.02569359 -33.3125 56.59033203 C-34.095761 50.44794456 -33.99848436 44.28586913 -33.99780273 38.10424805 C-33.99999137 35.88375732 -34.01820292 33.66376275 -34.03710938 31.44335938 C-34.11086926 13.33321388 -34.11086926 13.33321388 -29.625 7.4375 C-20.94127241 0.87646138 -10.5378804 -0.06233263 0 0 Z M64.1875 216.3125 C60.85076767 227.70394899 59.4620148 238.45346057 59.1875 250.3125 C60.18330078 249.82136719 60.18330078 249.82136719 61.19921875 249.3203125 C64.85237912 248.08826626 68.19805042 248.09290604 72 248.1875 C73.03930664 248.20103516 73.03930664 248.20103516 74.09960938 248.21484375 C75.79572395 248.23823843 77.49165871 248.27410359 79.1875 248.3125 C79.5175 247.6525 79.8475 246.9925 80.1875 246.3125 C79.63320313 245.64863281 79.07890625 244.98476562 78.5078125 244.30078125 C77.78335937 243.41777344 77.05890625 242.53476563 76.3125 241.625 C75.59320313 240.75488281 74.87390625 239.88476562 74.1328125 238.98828125 C70.56043982 234.07447546 69.86393039 230.352466 70.1875 224.3125 C70.47270405 222.63692621 70.78705696 220.96432755 71.1875 219.3125 C68.8775 218.3225 66.5675 217.3325 64.1875 216.3125 Z " fill="#050504" transform="translate(378.8125,7.6875)"/>
<path d="M0 0 C0.70640625 0.30292969 1.4128125 0.60585937 2.140625 0.91796875 C9.09902797 3.75902524 16.0269855 5.92862138 23.3125 7.75 C24.14749023 7.96035889 24.98248047 8.17071777 25.84277344 8.38745117 C34.50410728 10.49084422 42.73762359 11.14629765 51.625 11.09765625 C52.61250244 11.0962413 53.60000488 11.09482635 54.61743164 11.09336853 C57.74498636 11.08780927 60.87246723 11.07526446 64 11.0625 C66.13150938 11.05747973 68.26301988 11.05291775 70.39453125 11.04882812 C75.596379 11.03785322 80.79818422 11.02115612 86 11 C86.18067017 12.7478479 86.18067017 12.7478479 86.36499023 14.53100586 C87.28955213 23.27875678 88.33345615 31.93042936 90.0625 40.5625 C90.23587891 41.47451172 90.40925781 42.38652344 90.58789062 43.32617188 C91.08857875 47.49593515 91.08857875 47.49593515 93 51 C93.35827503 52.88771801 93.65999247 54.78622941 93.9375 56.6875 C94.11023438 57.86183594 94.28296875 59.03617187 94.4609375 60.24609375 C94.63882813 61.48488281 94.81671875 62.72367187 95 64 C95.17789063 65.20785156 95.35578125 66.41570312 95.5390625 67.66015625 C96.04133026 71.10481349 96.52478336 74.55151824 97 78 C97.11182617 78.76787842 97.22365234 79.53575684 97.33886719 80.3269043 C98.22636779 87.08488495 98.22134913 93.8858815 98.24023438 100.69165039 C98.24993366 102.79809174 98.28104564 104.9035521 98.3125 107.00976562 C98.40412734 118.45317926 96.74500591 128.48448878 91.375 138.6875 C91.06304687 139.29271484 90.75109375 139.89792969 90.4296875 140.52148438 C88.20332626 144.79667374 88.20332626 144.79667374 87 146 C86.91501807 147.49669953 86.89181159 148.99698601 86.89453125 150.49609375 C86.78449124 160.40731246 86.40869164 169.81191848 83.375 179.3125 C83.15175049 180.06394287 82.92850098 180.81538574 82.69848633 181.58959961 C81.9609375 183.67578125 81.9609375 183.67578125 80 187 C65.15907442 193.36039668 45.56817838 190.11093944 30 188 C30.96725103 180.87751516 35.68096105 175.98084577 41 171.4375 C44.5617772 169.73081509 47.09676997 169.89413409 51 170 C49.71405237 156.97132007 47.57110912 144.98777569 41.6875 133.125 C39.04378629 127.6172631 38.30778221 124.87299116 40 119 C40.4640625 117.87464844 40.928125 116.74929688 41.40625 115.58984375 C43.57459315 109.85926969 44.50231813 103.88962928 45.5625 97.875 C45.78010986 96.67319092 45.99771973 95.47138184 46.22192383 94.2331543 C47.50507583 87.06585463 48.65129406 79.9029853 49.59765625 72.68359375 C49.97147706 70.19024525 50.48598101 67.81208622 51.125 65.375 C52.16730811 61.93576564 52.16730811 61.93576564 52 58 C48.77240851 65.99366826 45.84378708 73.87779534 44 82.3125 C38.29068139 108.19115925 29.164589 135.19776558 6.7890625 151.3125 C4 153 4 153 2 153 C2.061875 154.03125 2.12375 155.0625 2.1875 156.125 C1.81220876 163.88101889 -3.03787472 168.61471397 -7.94140625 174.21875 C-10.07507327 177.10142727 -11.06393389 179.55932459 -12 183 C-9.525 181.02 -9.525 181.02 -7 179 C-5.84715226 197.70175224 -12.84673214 214.49409457 -20.17456055 231.32641602 C-26.50928813 245.97035039 -27.45731757 259.15852631 -28 275 C-37.80706267 275.31042285 -46.63181742 275.39925415 -56 272 C-55.54994027 259.19657678 -54.72153019 246.42578142 -53.75772095 233.65213013 C-53.62901196 231.94478947 -53.50184008 230.23733213 -53.37631226 228.52975464 C-49.8319781 180.55526845 -49.8319781 180.55526845 -34.625 163.06640625 C-34.02945312 162.37248779 -33.43390625 161.67856934 -32.8203125 160.96362305 C-31.63457341 159.60310831 -30.42180011 158.26554816 -29.1796875 156.95629883 C-26.73490811 154.18851007 -25.10146796 152.25074797 -24.79663086 148.49316406 C-25.20522271 143.87023909 -26.30757639 139.46195062 -27.5625 135 C-32.75507963 111.24780407 -28.60741919 84.27487855 -21.06640625 61.44140625 C-20.15832955 58.51094627 -19.67128507 55.90193318 -19.3125 52.875 C-18.52143248 48.95733226 -16.60562852 47.61726271 -13.375 45.375 C-12.47910156 44.81554687 -11.58320313 44.25609375 -10.66015625 43.6796875 C-6.7205481 41.19212289 -3.40933064 38.15626692 0 35 C0.67675781 34.41089844 1.35351562 33.82179688 2.05078125 33.21484375 C4.92959246 30.58987561 6.74953547 28.8408452 7.875 25.0625 C6.73025409 21.05588931 4.55989824 18.92280857 1.62890625 16.02734375 C-0.81499653 12.9856518 -1.06766077 10.37285891 -0.87890625 6.54296875 C-0.77449219 5.76566406 -0.67007813 4.98835937 -0.5625 4.1875 C-0.46066406 3.39730469 -0.35882813 2.60710937 -0.25390625 1.79296875 C-0.17011719 1.20128906 -0.08632813 0.60960937 0 0 Z " fill="#EEEDED" transform="translate(344,248)"/>
<path d="M0 0 C0.69222656 1.57587891 0.69222656 1.57587891 1.3984375 3.18359375 C9.42727897 20.7574168 22.01993885 28.23198727 38.9609375 36.3671875 C39.58951157 36.66915543 40.21808563 36.97112335 40.8657074 37.28224182 C44.04739017 38.80730546 47.23416225 40.31999516 50.4309082 41.81323242 C59.88244682 46.26013184 69.06218298 51.12449307 77 58 C77.64453125 60.26171875 77.64453125 60.26171875 77.8125 62.6875 C78.64943697 68.31403664 81.27204665 70.99727313 85.1796875 74.9609375 C87.39104195 77.43803412 87.96280135 79.88840404 89 83 C92.58824649 85.31242551 95.85174427 86.23232619 100 87 C98.32906417 94.76587317 95.69088651 99.51235943 90 105 C89.154375 105.81984375 88.30875 106.6396875 87.4375 107.484375 C67.73086806 126.01289308 45.53345081 143.13796749 20.8125 154.375 C20.11261963 154.69694336 19.41273926 155.01888672 18.69165039 155.35058594 C7.76264768 160.13147128 -2.75194869 161.53245403 -14.625 161.4375 C-15.94226074 161.43065186 -17.25952148 161.42380371 -18.61669922 161.41674805 C-39.5623794 161.07343948 -59.60781715 155.95496907 -74.6875 140.5 C-81.50698362 132.21449212 -87.78334902 119.82450578 -88.125 109.0625 C-85.4302079 90.78747315 -69.48766591 71.79536863 -58 58 C-57.51772949 57.42008301 -57.03545898 56.84016602 -56.53857422 56.24267578 C-45.55140382 43.10229548 -33.83833477 30.74851512 -21.75 18.625 C-21.2303064 18.10262756 -20.71061279 17.58025513 -20.1751709 17.04205322 C-3.19941353 0 -3.19941353 0 0 0 Z " fill="#89C53F" transform="translate(220,210)"/>
<path d="M0 0 C2.44952668 1.163253 4.84404596 2.41626784 7.24975586 3.66748047 C11.96358003 5.95137326 16.89958551 7.51324601 21.875 9.125 C22.87402344 9.45886719 23.87304688 9.79273437 24.90234375 10.13671875 C44.03262548 16.5667458 44.03262548 16.5667458 63 12 C64.5058133 11.09291451 66.00603483 10.17646957 67.5 9.25 C72.34790952 6.48831609 76.52460867 6.06971507 82 7 C87.15143252 8.49707696 90.13478431 10.95873021 93.4375 15.125 C96.04524572 18.38167783 97.69205355 19.52595989 101.8125 20.25 C102.56144531 20.31703125 103.31039062 20.3840625 104.08203125 20.453125 C106 21 106 21 107.26171875 23.046875 C107.50535156 23.69140625 107.74898437 24.3359375 108 25 C108.61488281 24.89300781 109.22976563 24.78601563 109.86328125 24.67578125 C110.67152344 24.55589844 111.47976563 24.43601562 112.3125 24.3125 C113.11300781 24.18488281 113.91351563 24.05726562 114.73828125 23.92578125 C117 24 117 24 118.79296875 25.35546875 C120 27 120 27 120 29 C108.99877417 30.87037843 108.99877417 30.87037843 104.73046875 29.01171875 C103.35010386 28.00162926 101.99063206 26.96262756 100.6484375 25.90234375 C97.09176676 23.34762598 93.31902257 21.5079881 89.375 19.625 C88.65795898 19.26736572 87.94091797 18.90973145 87.20214844 18.54125977 C79.64277849 14.96128588 73.63555625 15.8942732 65.8125 18 C53.47179864 21.02693951 44.09512841 19.94235396 31.88256836 16.79272461 C19.82269063 13.76329291 19.82269063 13.76329291 8 16 C8.83917969 15.94199219 9.67835938 15.88398437 10.54296875 15.82421875 C18.7283497 15.5171573 25.811282 16.44605462 33.75 18.5 C45.67827298 21.53057431 54.4637341 21.47862167 66.36987305 18.42407227 C76.5543111 15.88276513 82.88092972 16.6569242 92 22 C92.87922119 22.50329834 93.75844238 23.00659668 94.66430664 23.52514648 C106.13194485 30.23480979 113.3324582 36.86373386 117.3125 49.8125 C118.51359293 55.3832834 118.54446563 61.34716567 118 67 C116 69 116 69 112.6875 69.5 C108.53829919 69.41776359 105.57193285 68.00662569 101.875 66.1875 C80.73252455 55.95492893 54.19551964 58.66749317 31.9375 64.125 C20.92666111 66.74455792 8.92447227 68.82913161 -1.375 63.0625 C-3.28827249 61.76296903 -5.16289361 60.405145 -7 59 C-8.64923895 57.74578238 -10.29863669 56.49179644 -11.94970703 55.23999023 C-13.48624051 54.05863184 -14.99592777 52.8425975 -16.50390625 51.625 C-17.32761719 51.08875 -18.15132813 50.5525 -19 50 C-22.09473385 50.72106873 -22.09473385 50.72106873 -23.60546875 53.0859375 C-25.26095865 56.54530854 -25.78598159 59.87249746 -26.3125 63.625 C-28.2273408 75.12846181 -33.47421234 83.99092674 -42 92 C-46.00241404 94.8102056 -49.59099264 95.62747455 -54.41015625 95.50390625 C-59.7067389 94.47334945 -64.34925477 91.6440785 -69 89 C-67.93072266 89.99966797 -67.93072266 89.99966797 -66.83984375 91.01953125 C-58.21985515 99.2445501 -52.29811331 107.76069881 -47.49609375 118.71875 C-42.37623321 129.94768695 -37.01697087 140.7474067 -28.71484375 149.96875 C-27 152 -27 152 -26 155 C-25.05125 154.938125 -24.1025 154.87625 -23.125 154.8125 C-15.66866489 154.82762441 -8.85599603 157.47491216 -3 162 C-2.47535156 162.40476562 -1.95070313 162.80953125 -1.41015625 163.2265625 C4.27966804 167.76172807 4.27966804 167.76172807 6 171 C5.48723389 177.61022395 0.50800091 181.58371116 -4 186 C-6.57978888 188.14479944 -9.24227214 190.09350957 -12 192 C-12.33 192.33 -12.66 192.66 -13 193 C-17.96460138 193.38189241 -21.05857534 193.15313973 -25 190 C-25.29390625 189.36449219 -25.5878125 188.72898437 -25.890625 188.07421875 C-27.22266923 185.58367126 -28.60758448 184.6287933 -30.9375 183.0625 C-34.24691897 180.64638434 -36.48508946 178.92094493 -38 175 C-37.95488281 174.27941406 -37.90976562 173.55882812 -37.86328125 172.81640625 C-37.72738946 169.81272899 -37.92745136 167.82687237 -39 165 C-43.4120902 160.77115955 -48.68709905 157.96257339 -54 155 C-55.04365723 154.41492676 -56.08731445 153.82985352 -57.16259766 153.22705078 C-61.79712333 150.63746075 -66.43278216 148.053301 -71.10302734 145.52856445 C-88.4435459 136.10932028 -104.8090619 126.31876224 -111.25 106.78125 C-112.47353994 102.24395606 -113.24908858 98.6115 -112 94 C-109.9514563 90.51193911 -107.67215778 87.31778694 -105.25390625 84.08203125 C-101.15431258 78.47617439 -99.23600895 73.10526107 -97.61254883 66.38305664 C-96.03030965 59.86632293 -94.55072643 54.26018254 -89 50 C-85.09722937 47.70839319 -81.44813284 47.31823011 -77 48 C-72.59571455 49.72612399 -69.13886712 52.48446883 -66 56 C-68.68706127 49.58090919 -72.29614201 46.80257199 -78 43 C-78.83484711 37.03680634 -77.27738072 32.85126412 -74 28 C-65.60380184 17.55311749 -54.20901247 13.28140708 -41.16796875 11.64453125 C-34.24900934 11.294324 -28.43198602 12.9865561 -21.94873047 15.1394043 C-12.83775598 17.97097415 -3.4686089 17.898187 6 18 C6 17.34 6 16.68 6 16 C4.73027344 16.05800781 3.46054687 16.11601563 2.15234375 16.17578125 C-9.51984291 16.54363336 -18.15026321 15.22913174 -29 11 C-32.64626407 9.91711879 -36.31513648 8.94228319 -40 8 C-36.66667856 4.55556784 -35.25045847 3.12935777 -30.375 2.625 C-25.30726686 2.64356313 -21.95706608 5.05324866 -18 8 C-18.495 6.02 -18.495 6.02 -19 4 C-12.99096825 -1.59932504 -7.90515149 -2.07981867 0 0 Z " fill="#EDECEC" transform="translate(340,99)"/>
<path d="M0 0 C-0.27714844 0.64066406 -0.55429687 1.28132813 -0.83984375 1.94140625 C-2.96571182 7.01776737 -4.52274086 11.51151988 -5 17 C-5.88751953 17.14695313 -5.88751953 17.14695313 -6.79296875 17.296875 C-12.88340569 18.44938835 -16.52853992 19.78167011 -20.421875 24.8515625 C-24.5683713 31.07130696 -26.79926839 37.76001839 -28.99584961 44.84228516 C-29.34595093 45.97029541 -29.34595093 45.97029541 -29.703125 47.12109375 C-30.00718262 48.13320923 -30.00718262 48.13320923 -30.31738281 49.16577148 C-31.42441266 52.14041929 -32.56078795 53.76072436 -35.34960938 55.2800293 C-36.33767578 55.70711182 -37.32574219 56.13419434 -38.34375 56.57421875 C-40.0309314 57.31418091 -40.0309314 57.31418091 -41.75219727 58.0690918 C-42.35943634 58.3310434 -42.96667542 58.592995 -43.59231567 58.86288452 C-46.92416545 60.30310965 -50.24025281 61.77898338 -53.55859375 63.25 C-54.25734116 63.55898727 -54.95608856 63.86797455 -55.67601013 64.18632507 C-78.38511315 74.24425328 -100.653182 85.2286766 -122.875 96.3125 C-123.97570831 96.86022064 -125.07641663 97.40794128 -126.21047974 97.97225952 C-144.09309348 106.88042107 -161.93669203 115.93533201 -178.875 126.5625 C-179.74302246 127.10350342 -180.61104492 127.64450684 -181.50537109 128.2019043 C-188.89206482 132.84784312 -195.98207032 137.81988502 -203 143 C-203.89074219 143.62777344 -204.78148437 144.25554687 -205.69921875 144.90234375 C-220.41000556 155.30324384 -234.33502804 167.18741764 -247 180 C-243.04741187 144.96921888 -222.30676249 111.95061994 -195 90 C-193.98550781 89.17113281 -192.97101563 88.34226562 -191.92578125 87.48828125 C-171.28747323 70.81148773 -147.73737064 56.79668407 -124 45 C-123.19804199 44.60039062 -122.39608398 44.20078125 -121.56982422 43.7890625 C-102.66737192 34.43298873 -83.32970182 25.25472599 -63.1484375 19 C-60.12917744 18.04102906 -57.1754441 16.95871364 -54.21435547 15.83447266 C-39.32607807 10.22387374 -24.29609778 5.47176287 -8.8815918 1.53735352 C-3.20324046 -0.0842958 -3.20324046 -0.0842958 0 0 Z " fill="#88C43F" transform="translate(259,125)"/>
<path d="M0 0 C3.30677783 1.81339429 6.11470567 3.91074486 9 6.3125 C20.00084333 14.81644139 30.37394849 17.74290218 44 16 C47.65697145 15.32761278 51.24768912 14.4354405 54.84594727 13.50341797 C61.57020547 11.77266583 68.0529299 11.16606542 75 11 C76.24040039 10.96132812 76.24040039 10.96132812 77.50585938 10.921875 C94.50435647 10.4351607 109.25200989 11.91595267 125 19 C126.65926764 20.65926764 126.17135814 22.59576909 126.1875 24.875 C126.03339564 34.86609965 123.97504835 42.60877647 119.61035156 51.50268555 C117.13067152 56.57458096 115.44597363 61.56477999 114 67 C113.62875 68.051875 113.2575 69.10375 112.875 70.1875 C110.88246337 76.59208201 110.74617237 83.28333324 110.4375 89.9375 C110.39431641 90.81212891 110.35113281 91.68675781 110.30664062 92.58789062 C110.20153099 94.72511995 110.10036015 96.86254238 110 99 C99.97710092 100.96941175 90.00738207 101.24760419 79.8125 101.3125 C77.90766846 101.33860352 77.90766846 101.33860352 75.96435547 101.36523438 C59.35948049 101.35660286 35.32795708 95.32795708 23 83 C22.36800014 80.19948688 21.83545056 77.45348198 21.375 74.625 C21.2409375 73.85671875 21.106875 73.0884375 20.96875 72.296875 C20.36935172 68.76164842 20 65.61233133 20 62 C21.71484375 60.55078125 21.71484375 60.55078125 23.9375 59.3125 C24.66839844 58.89613281 25.39929688 58.47976562 26.15234375 58.05078125 C26.76207031 57.70402344 27.37179687 57.35726562 28 57 C28.33 56.67 28.66 56.34 29 56 C28.03320312 55.93683594 27.06640625 55.87367188 26.0703125 55.80859375 C9.46614613 54.24681573 1.15173914 44.58559642 -10 33 C-8.99930085 30.99389989 -7.9953395 28.99099555 -6.96484375 27 C-6.62582031 26.34 -6.28679687 25.68 -5.9375 25 C-5.59589844 24.34 -5.25429688 23.68 -4.90234375 23 C-2.63271325 17.96947698 -2.69329329 12.74372484 -2.48242188 7.3125 C-2.21548325 2.21548325 -2.21548325 2.21548325 0 0 Z " fill="#EEEDED" transform="translate(321,155)"/>
<path d="M0 0 C0.67047363 0.14147461 1.34094727 0.28294922 2.03173828 0.42871094 C10.26843046 1.99957665 18.31272156 2.30880435 26.66259766 2.26074219 C28.86519097 2.25004763 31.06696292 2.26068605 33.26953125 2.2734375 C41.35898738 2.28022377 49.05966565 1.77703491 57.05126953 0.42871094 C59.75474839 0.03565672 62.27406904 -0.07948792 65 0 C64.30832894 4.19956751 63.61450259 8.39877158 62.91870117 12.59765625 C62.68243502 14.02529326 62.44675187 15.45302689 62.21166992 16.88085938 C61.87312622 18.93645667 61.5324682 20.99169422 61.19140625 23.046875 C60.98717041 24.28276367 60.78293457 25.51865234 60.57250977 26.79199219 C60 30 60 30 59.47131348 31.85656738 C58.89992253 34.45513087 58.88037066 36.8416091 58.88647461 39.50292969 C58.88655014 40.60376892 58.88662567 41.70460815 58.88670349 42.83880615 C58.89186478 44.02121887 58.89702606 45.20363159 58.90234375 46.421875 C58.90446617 48.24455902 58.90446617 48.24455902 58.90663147 50.10406494 C58.91223012 53.98606831 58.9247824 57.86801406 58.9375 61.75 C58.94251517 64.38150958 58.94707805 67.01302007 58.95117188 69.64453125 C58.96219911 76.09637383 58.97893592 82.5481828 59 89 C60.06508789 89.59530518 61.13017578 90.19061035 62.22753906 90.80395508 C63.65693934 91.60491213 65.08629915 92.4059414 66.515625 93.20703125 C67.21381348 93.59701294 67.91200195 93.98699463 68.63134766 94.38879395 C73.39683909 97.062152 78.08739312 99.8391163 82.75 102.6875 C92.6799536 108.67521852 102.44119627 113.39959379 113.5546875 116.7265625 C117.24625787 118.09102048 119.83283554 119.70453218 123 122 C122.42655063 124.86724686 122.1385485 125.8614515 120 128 C106.55940467 132.67248164 91.26627127 129.78228572 77.6015625 127.796875 C65.94776176 126.11208435 54.32770518 125.03581884 42.5546875 124.76171875 C41.81529434 124.74377258 41.07590118 124.72582642 40.31410217 124.70733643 C36.60734676 124.62085074 32.90166959 124.55426458 29.1940918 124.51708984 C27.8181908 124.49218093 26.4422953 124.46696646 25.06640625 124.44140625 C23.2402478 124.42122437 23.2402478 124.42122437 21.37719727 124.40063477 C16.85967585 123.86472407 13.50685877 122.3561729 10.125 119.3125 C8.19964284 115.35482139 8.34612251 111.0594966 9.66064453 106.91918945 C10.56665776 104.75934132 11.52727854 102.63057757 12.5 100.5 C16.20757498 91.64397854 16.84310879 84.60700284 16 75 C15.90039902 73.4349366 15.80146529 71.86983062 15.703125 70.3046875 C14.75984293 57.53568112 11.55357981 46.81053512 6.4375 35.0625 C1.55000282 23.55522815 -0.62076505 12.5181569 0 0 Z " fill="#88C43F" transform="translate(365,440)"/>
<path d="M0 0 C0.13277344 0.80824219 0.26554687 1.61648437 0.40234375 2.44921875 C0.66724609 4.05216797 0.66724609 4.05216797 0.9375 5.6875 C1.19853516 7.27111328 1.19853516 7.27111328 1.46484375 8.88671875 C1.93696363 11.95063172 1.93696363 11.95063172 2.75 14.68359375 C3 17 3 17 1.84765625 18.7734375 C1.25855469 19.30195313 0.66945313 19.83046875 0.0625 20.375 C-0.50339844 20.89835937 -1.06929688 21.42171875 -1.65234375 21.9609375 C-2.96111703 23.09767569 -4.27325752 24.23067193 -5.59790039 25.34887695 C-11.65488063 30.53007302 -17.27887781 36.12690882 -22.90014648 41.76977539 C-24.5592732 43.43426277 -26.22368051 45.09333447 -27.88867188 46.75195312 C-33.46918964 52.32871956 -38.90401258 57.97180921 -44 64 C-44.86882812 64.98742187 -45.73765625 65.97484375 -46.6328125 66.9921875 C-57.15571088 79.16444299 -66.50547149 91.99777973 -74.5625 105.9375 C-75.05097412 106.77667969 -75.53944824 107.61585938 -76.04272461 108.48046875 C-79.39804266 114.44027264 -81.83968484 120.51596946 -84 127 C-84.33 127 -84.66 127 -85 127 C-85.22550537 125.41469482 -85.22550537 125.41469482 -85.45556641 123.79736328 C-86.03159127 119.78015842 -86.62979261 115.76648924 -87.23388672 111.75341797 C-87.48970618 110.03422177 -87.7399375 108.31418239 -87.98388672 106.59326172 C-90.42809226 89.40335529 -94.13622741 67.86377259 -107 55 C-106.94482422 53.06884766 -106.94482422 53.06884766 -106 51 C-103.80126953 49.41943359 -103.80126953 49.41943359 -100.8828125 47.8984375 C-99.81144043 47.33141113 -98.74006836 46.76438477 -97.63623047 46.18017578 C-96.47752441 45.58446777 -95.31881836 44.98875977 -94.125 44.375 C-92.92140641 43.74453064 -91.71844861 43.1128461 -90.51611328 42.47998047 C-88.11263214 41.21727018 -85.70555153 39.96189773 -83.29492188 38.71289062 C-80.57718209 37.30005257 -77.87052648 35.87067402 -75.171875 34.421875 C-70.47115456 31.90228884 -65.74216691 29.44061789 -61 27 C-59.84258301 26.40429199 -58.68516602 25.80858398 -57.49267578 25.19482422 C-43.23838711 17.87951599 -28.94442652 10.75371343 -14.1875 4.5 C-13.09687256 4.03730713 -12.00624512 3.57461426 -10.88256836 3.09790039 C-3.40527287 0 -3.40527287 0 0 0 Z " fill="#527625" transform="translate(216,193)"/>
<path d="M0 0 C8.04612046 -0.51086479 13.93343532 0.60055065 20.23828125 5.87109375 C26.20953754 11.64585532 29.80787853 16.50078328 30.16796875 24.93359375 C30.17987309 26.43486275 30.18621792 27.93618435 30.1875 29.4375 C30.19974609 30.18837891 30.21199219 30.93925781 30.22460938 31.71289062 C30.23583077 35.96579791 29.87843102 39.09864327 28 43 C27.27420634 46.83633794 28.35738002 48.82775383 30.375 52 C30.81585938 52.639375 31.25671875 53.27875 31.7109375 53.9375 C36.1200076 60.99201215 35.60142622 68.36042632 34.5625 76.375 C32.43774218 79.94459314 29.63212448 81.52035522 26.09375 83.60546875 C23.73242863 84.98425977 23.73242863 84.98425977 22 88 C23.155 87.505 24.31 87.01 25.5 86.5 C29.96193275 84.84947975 33.25377861 84.45535164 38 85 C41.56253005 87.16849655 43.51289919 89.13740049 45 93 C46.81489052 107.58336806 43.13133713 119.68175381 34.1875 131.3125 C33.12914096 132.54523399 32.06729988 133.77499881 31 135 C28.96404521 138.05393219 27.96387265 140.73605542 26.75 144.1875 C24.56049467 149.97680967 22.04753532 154.36174331 18 159 C17.29875 159.99 16.5975 160.98 15.875 162 C11.16112511 165.27921731 6.53678464 164.96759343 1 164 C-4.27271146 161.91179744 -8.81364195 159.77953708 -12 155 C-13.68875691 149.13104853 -14.70826375 143.07083216 -14 137 C-11.23728594 132.81646156 -8.45521432 130.23397175 -4 128 C-0.80859375 127.5234375 -0.80859375 127.5234375 2.5625 127.375 C7.84995369 127.11873075 7.84995369 127.11873075 13 126 C12.88747199 120.82371156 11.76983717 118.53308723 8.4375 114.5625 C4.90419733 109.86835866 4.3450996 106.19952424 4.375 100.5 C4.37685303 99.79302979 4.37870605 99.08605957 4.38061523 98.35766602 C4.4609375 96.34375 4.4609375 96.34375 5 93 C6.485 92.01 6.485 92.01 8 91 C6.95199219 90.49339844 6.95199219 90.49339844 5.8828125 89.9765625 C4.97273438 89.53054687 4.06265625 89.08453125 3.125 88.625 C2.22007812 88.18414062 1.31515625 87.74328125 0.3828125 87.2890625 C-2 86 -2 86 -4 84 C-4 77.79979084 -1.22550734 73.0713937 1.625 67.671875 C3.63310271 63.76976633 4.0330757 60.95368458 4.03686523 56.60546875 C4.07880091 53.26339486 4.32612158 50.29163691 5 47 C6.98756034 45.17442145 8.5754793 44.61721958 11.12109375 43.79296875 C13.39620564 43.07925156 13.39620564 43.07925156 14.5 39.8125 C16.15079826 27.22516324 13.36334843 17.39290726 5.68359375 7.13671875 C5.12800781 6.43160156 4.57242187 5.72648438 4 5 C3.195625 3.96875 2.39125 2.9375 1.5625 1.875 C1.046875 1.25625 0.53125 0.6375 0 0 Z " fill="#EDECEC" transform="translate(451,132)"/>
<path d="M0 0 C1.3015676 2.60313521 0.76458083 3.35556667 -0.109375 6.0859375 C-0.36831543 6.92326416 -0.62725586 7.76059082 -0.89404297 8.62329102 C-1.17650879 9.53135498 -1.45897461 10.43941895 -1.75 11.375 C-8.02701824 32.69108596 -11.17954397 56.24782764 -6.66821289 78.24755859 C-5.52430617 83.89563975 -5.33948341 87.51386891 -8.5390625 92.359375 C-11.42307444 96.18623699 -14.6067963 99.62154936 -18 103 C-26.62633427 101.69208901 -30.92449275 94.97412424 -36.0546875 88.44921875 C-44.88386152 77.33296953 -56.62664252 71.2551592 -70 67 C-71.03125 66.608125 -72.0625 66.21625 -73.125 65.8125 C-81.77082904 63.36911353 -91.15113146 63.70541202 -100.0625 63.4375 C-101.41863016 63.39420372 -102.77475011 63.35058634 -104.13085938 63.30664062 C-107.42048671 63.2012789 -110.71018059 63.09915048 -114 63 C-114 62.67 -114 62.34 -114 62 C-112.20369141 61.96132813 -112.20369141 61.96132813 -110.37109375 61.921875 C-93.02023812 61.38968414 -79.19458823 57.31032121 -64 49 C-63.08903564 48.51225098 -63.08903564 48.51225098 -62.15966797 48.01464844 C-52.89329743 43.0412156 -44.38579339 37.31844621 -36 31 C-35.41186523 30.5575293 -34.82373047 30.11505859 -34.21777344 29.65917969 C-25.70109737 23.20771616 -17.80012793 16.29654824 -10 9 C-8.0916587 7.26133078 -6.17135598 5.53686302 -4.25 3.8125 C-3.43015625 3.07644531 -2.6103125 2.34039062 -1.765625 1.58203125 C-1.18296875 1.05996094 -0.6003125 0.53789062 0 0 Z " fill="#527625" transform="translate(315,309)"/>
<path d="M0 0 C2.74244977 2.3399742 3.85111599 3.55334798 5 7 C6.07106605 21.79856255 4.8812401 36.48403797 2 51 C1.7834375 52.134375 1.566875 53.26875 1.34375 54.4375 C-0.0226557 60.42365832 -2.19169486 65.01812231 -7 69 C-11.54543473 70.51514491 -16.05158729 70.18442249 -20.8125 70.1875 C-22.29073242 70.20586914 -22.29073242 70.20586914 -23.79882812 70.22460938 C-33.50454724 70.24416422 -33.50454724 70.24416422 -38 68 C-48.87921742 56.12674241 -47.82765422 31.62569166 -47.22143555 16.82568359 C-46.25742199 4.52414787 -46.25742199 4.52414787 -42.9375 0.5 C-41.968125 0.005 -40.99875 -0.49 -40 -1 C-39.44054687 -1.29390625 -38.88109375 -1.5878125 -38.3046875 -1.890625 C-27.02435118 -6.75665243 -10.78975421 -5.24906962 0 0 Z " fill="#EDECEC" transform="translate(400,20)"/>
<path d="M0 0 C1.92585938 0.00580078 1.92585938 0.00580078 3.890625 0.01171875 C7.82523844 0.31836372 11.07004056 0.88267765 14.75 2.3125 C16.08984375 4.08203125 16.08984375 4.08203125 16.6875 6.125 C16.89890625 6.83269531 17.1103125 7.54039062 17.328125 8.26953125 C17.82347777 10.6683229 17.97878879 12.87208628 17.75 15.3125 C16.43 14.9825 15.11 14.6525 13.75 14.3125 C16.35606011 27.46730242 16.35606011 27.46730242 21 40 C22.02465283 43.15934624 21.71122254 45.15419738 20.75 48.3125 C15.68359227 53.21002748 9.71775228 52.52793773 3.125 52.5625 C2.16464844 52.583125 1.20429688 52.60375 0.21484375 52.625 C-8.64987199 52.67311243 -16.22611416 50.99850283 -23.25 45.3125 C-26.03411315 41.97156421 -26.97064138 38.8127824 -26.7890625 34.421875 C-24.79424568 26.61607007 -14.72833486 19.5589246 -8.25 15.375 C-7.59 15.024375 -6.93 14.67375 -6.25 14.3125 C-8.89 14.6425 -11.53 14.9725 -14.25 15.3125 C-14.75632171 9.99612203 -13.49708376 7.48732197 -10.25 3.3125 C-9.85941406 2.7659375 -9.46882813 2.219375 -9.06640625 1.65625 C-6.18334283 -0.47659692 -3.52094236 -0.04558989 0 0 Z " fill="#ECEBEB" transform="translate(297.25,526.6875)"/>
<path d="M0 0 C3.34125239 1.8322997 6.19644925 3.96170593 9.125 6.375 C14.00816558 10.25353455 19.24757732 12.66677435 25 15 C24.21625 15.598125 23.4325 16.19625 22.625 16.8125 C19.94181627 19.04848644 18.31733646 20.73972093 17.453125 24.171875 C16.71481578 33.54272279 21.56710849 39.04732677 26.79052734 46.2578125 C36.22502706 59.847758 36.16362578 74.16466014 36 90 C31.4031032 88.5361837 27.77183952 87.08605052 24 84 C22.02773694 79.31412678 21.42705019 74.62965169 20.875 69.625 C20.78863281 68.88894531 20.70226562 68.15289062 20.61328125 67.39453125 C20.40318115 65.59700818 20.20079233 63.79858658 20 62 C20.56589844 61.65066406 21.13179688 61.30132812 21.71484375 60.94140625 C22.81505859 60.25884766 22.81505859 60.25884766 23.9375 59.5625 C24.66839844 59.11003906 25.39929688 58.65757812 26.15234375 58.19140625 C27.93899809 57.13135967 27.93899809 57.13135967 29 56 C28.03320312 55.93683594 27.06640625 55.87367188 26.0703125 55.80859375 C9.46614613 54.24681573 1.15173914 44.58559642 -10 33 C-8.99930085 30.99389989 -7.9953395 28.99099555 -6.96484375 27 C-6.62582031 26.34 -6.28679687 25.68 -5.9375 25 C-5.59589844 24.34 -5.25429688 23.68 -4.90234375 23 C-2.63271325 17.96947698 -2.69329329 12.74372484 -2.48242188 7.3125 C-2.21548325 2.21548325 -2.21548325 2.21548325 0 0 Z " fill="#8F8E8E" transform="translate(321,155)"/>
<path d="M0 0 C0.33 0 0.66 0 1 0 C1.03440186 0.76401123 1.06880371 1.52802246 1.10424805 2.31518555 C1.97088633 20.59520693 3.47049345 38.74912129 5.5 56.9375 C5.6075058 57.91262543 5.7150116 58.88775085 5.82577515 59.89242554 C6.1382479 62.70895225 6.45807583 65.52452658 6.78125 68.33984375 C6.87396683 69.16792542 6.96668365 69.99600708 7.06221008 70.84918213 C7.65692493 75.90152148 8.50964283 80.84899156 9.55880737 85.82710266 C11.9799001 97.75111413 8.40780679 105.32314575 2 115 C0.9966779 116.62295095 -0.00400667 118.24754116 -1 119.875 C-1.66 120.90625 -2.32 121.9375 -3 123 C1.29 123 5.58 123 10 123 C10 123.33 10 123.66 10 124 C-0.52670777 124.30028643 -10.58696894 123.41193641 -21 122 C-20.03274897 114.87751516 -15.31903895 109.98084577 -10 105.4375 C-6.4382228 103.73081509 -3.90323003 103.89413409 0 104 C-1.28594763 90.97132007 -3.42889088 78.98777569 -9.3125 67.125 C-11.95621371 61.6172631 -12.69221779 58.87299116 -11 53 C-10.5359375 51.87464844 -10.071875 50.74929688 -9.59375 49.58984375 C-7.425416 43.85929388 -6.49755983 37.88963304 -5.4375 31.875 C-5.11217285 30.07663696 -5.11217285 30.07663696 -4.78027344 28.24194336 C-3.48721632 21.01387178 -2.28969362 13.78830101 -1.359375 6.50390625 C-1.03979046 4.2772357 -0.59435643 2.16735147 0 0 Z " fill="#8F8E8E" transform="translate(395,314)"/>
<path d="M0 0 C2.44952668 1.163253 4.84404596 2.41626784 7.24975586 3.66748047 C11.96358003 5.95137326 16.89958551 7.51324601 21.875 9.125 C22.87402344 9.45886719 23.87304688 9.79273437 24.90234375 10.13671875 C44.03262548 16.5667458 44.03262548 16.5667458 63 12 C64.5058133 11.09291451 66.00603483 10.17646957 67.5 9.25 C72.34790952 6.48831609 76.52460867 6.06971507 82 7 C87.15143252 8.49707696 90.13478431 10.95873021 93.4375 15.125 C96.04524572 18.38167783 97.69205355 19.52595989 101.8125 20.25 C102.56144531 20.31703125 103.31039062 20.3840625 104.08203125 20.453125 C106 21 106 21 107.26171875 23.046875 C107.50535156 23.69140625 107.74898437 24.3359375 108 25 C108.61488281 24.89300781 109.22976563 24.78601563 109.86328125 24.67578125 C110.67152344 24.55589844 111.47976563 24.43601562 112.3125 24.3125 C113.11300781 24.18488281 113.91351563 24.05726562 114.73828125 23.92578125 C117 24 117 24 118.79296875 25.35546875 C120 27 120 27 120 29 C108.99877417 30.87037843 108.99877417 30.87037843 104.73046875 29.01171875 C103.35010386 28.00162926 101.99063206 26.96262756 100.6484375 25.90234375 C97.09176676 23.34762598 93.31902257 21.5079881 89.375 19.625 C88.65795898 19.26736572 87.94091797 18.90973145 87.20214844 18.54125977 C79.64277849 14.96128588 73.63555625 15.8942732 65.8125 18 C53.47179864 21.02693951 44.09512841 19.94235396 31.88256836 16.79272461 C19.82269063 13.76329291 19.82269063 13.76329291 8 16 C9.65 16.33 11.3 16.66 13 17 C13 17.33 13 17.66 13 18 C10.69 18 8.38 18 6 18 C6 17.34 6 16.68 6 16 C4.73027344 16.05800781 3.46054687 16.11601563 2.15234375 16.17578125 C-9.51984291 16.54363336 -18.15026321 15.22913174 -29 11 C-32.64626407 9.91711879 -36.31513648 8.94228319 -40 8 C-36.66667856 4.55556784 -35.25045847 3.12935777 -30.375 2.625 C-25.30726686 2.64356313 -21.95706608 5.05324866 -18 8 C-18.33 6.68 -18.66 5.36 -19 4 C-12.99096825 -1.59932504 -7.90515149 -2.07981867 0 0 Z " fill="#83BC3E" transform="translate(340,99)"/>
<path d="M0 0 C2.45433612 2.0452801 4.6406596 4.27737914 6.875 6.5625 C10.4833472 10.00403796 14.06349883 13.14729111 18.3984375 15.63671875 C28.5925856 21.68487727 28.5925856 21.68487727 30.4765625 27.4921875 C32.52025456 36.38724003 32.05707047 45.57591608 30.875 54.5625 C18.69653815 55.69915644 18.69653815 55.69915644 14.29589844 52.36669922 C10.76172106 48.58431442 8.30989034 44.0977677 5.875 39.5625 C5.23046875 38.42554688 4.5859375 37.28859375 3.921875 36.1171875 C-0.16901216 28.4512207 -3.10463376 20.49768407 -5.86328125 12.27734375 C-6.86612294 9.32470459 -7.92987804 6.44089233 -9.125 3.5625 C-2.79605263 -0.57565789 -2.79605263 -0.57565789 0 0 Z " fill="#87C23E" transform="translate(301.125,197.4375)"/>
<path d="M0 0 C0.42410156 0.37511719 0.84820312 0.75023438 1.28515625 1.13671875 C2.16494141 1.90435547 2.16494141 1.90435547 3.0625 2.6875 C3.63097656 3.18636719 4.19945312 3.68523437 4.78515625 4.19921875 C5.51605469 4.79347656 6.24695313 5.38773437 7 6 C7.96421875 6.87527344 8.9284375 7.75054687 9.921875 8.65234375 C15.12566983 12.30627813 21.04469718 11.91188868 27.1875 11.875 C28.39390137 11.87564453 29.60030273 11.87628906 30.84326172 11.87695312 C39.71010396 11.62186145 44.89579165 10.12841893 51.2265625 3.96875 C51.81179688 3.3190625 52.39703125 2.669375 53 2 C53.33 2 53.66 2 54 2 C54.16928239 4.68735788 54.3354953 7.37484884 54.5 10.0625 C54.54769531 10.81466797 54.59539062 11.56683594 54.64453125 12.34179688 C54.92108402 16.90491751 55.0485677 21.42856523 55 26 C53.39202293 27.02714885 51.76233204 28.0203221 50.125 29 C49.22007812 29.556875 48.31515625 30.11375 47.3828125 30.6875 C39.22805407 33.85147094 31.32411689 31.65881074 23.25 29.1875 C22.34378906 28.92646484 21.43757813 28.66542969 20.50390625 28.39648438 C10.68219984 25.49298723 4.39657366 22.0255351 -1 13 C-2.05094493 8.62988365 -1.07771455 4.31085821 0 0 Z " fill="#EBEAEA" transform="translate(351,82)"/>
<path d="M0 0 C1.63195312 0.32484375 3.26390625 0.6496875 4.9453125 0.984375 C12.19428052 2.18792909 19.34061776 2.30288774 26.66259766 2.26074219 C28.86519097 2.25004763 31.06696292 2.26068605 33.26953125 2.2734375 C41.35898738 2.28022377 49.05966565 1.77703491 57.05126953 0.42871094 C59.75474839 0.03565672 62.27406904 -0.07948792 65 0 C64.85214455 1.60830523 64.65500441 3.21212543 64.4375 4.8125 C64.33308594 5.70582031 64.22867188 6.59914063 64.12109375 7.51953125 C63 10 63 10 59.82421875 11.75 C48.89649 15.68454024 36.63015123 15.19582762 25.1875 15.25 C23.96015137 15.25926514 22.73280273 15.26853027 21.46826172 15.27807617 C14.05810954 15.25253774 7.24898565 14.54677763 0 13 C0 8.71 0 4.42 0 0 Z " fill="#88C33F" transform="translate(365,440)"/>
<path d="M0 0 C1.4552777 2.9105554 0.63516661 4.95849052 0.0625 8.125 C-0.13214844 9.22070312 -0.32679688 10.31640625 -0.52734375 11.4453125 C-0.76130859 12.70988281 -0.76130859 12.70988281 -1 14 C-1.495 12.515 -1.495 12.515 -2 11 C-2.80695313 11.2165625 -3.61390625 11.433125 -4.4453125 11.65625 C-22.14525258 15.71483499 -41.03475045 14.89781533 -59 13 C-59.33 13 -59.66 13 -60 13 C-60.33 9.7 -60.66 6.4 -61 3 C-59.64132812 3.16113281 -58.28265625 3.32226562 -56.8828125 3.48828125 C-50.21494977 4.15084587 -43.57119344 4.19186604 -36.875 4.1875 C-34.95482056 4.1862915 -34.95482056 4.1862915 -32.99584961 4.18505859 C-21.73308238 4.11223436 -10.70164801 3.84161723 0 0 Z " fill="#628D2D" transform="translate(427,450)"/>
<path d="M0 0 C0 2.31 0 4.62 0 7 C-11.57856791 11.75548325 -24.17607929 11.07239098 -36.5 11.125 C-37.41934326 11.12975342 -38.33868652 11.13450684 -39.28588867 11.1394043 C-44.61483406 11.12631106 -49.72701883 10.77616312 -55 10 C-56.49821059 6.62902617 -57 4.79557881 -57 1 C-56.38068604 1.07001221 -55.76137207 1.14002441 -55.12329102 1.2121582 C-47.05406227 2.04295454 -39.04500898 2.18346038 -30.9375 2.1875 C-29.64005859 2.19974609 -28.34261719 2.21199219 -27.00585938 2.22460938 C-20.47129839 2.23454535 -14.37995966 1.98880522 -8.01635742 0.44311523 C-5.32476033 -0.14839085 -2.74252279 -0.1443433 0 0 Z " fill="#88C43F" transform="translate(425,461)"/>
<path d="M0 0 C1.60031344 3.20062687 0.03173691 5.72271806 -1 9 C-17.52767983 12.85645863 -34.14738837 12.30254642 -51 12 C-51.99 9.03 -52.98 6.06 -54 3 C-53.175 3.00523682 -52.35 3.01047363 -51.5 3.01586914 C-25.44800509 4.07936376 -25.44800509 4.07936376 0 0 Z " fill="#638E2D" transform="translate(424,468)"/>
<path d="M0 0 C0.33 0.66 0.66 1.32 1 2 C2.92987258 2.56157237 2.92987258 2.56157237 5.25390625 2.8515625 C6.10791016 2.98046875 6.96191406 3.109375 7.84179688 3.2421875 C9.18854492 3.43167969 9.18854492 3.43167969 10.5625 3.625 C11.91504883 3.82609375 11.91504883 3.82609375 13.29492188 4.03125 C15.52889514 4.362209 17.76376696 4.68473505 20 5 C19.98839844 5.88042969 19.97679687 6.76085937 19.96484375 7.66796875 C19.95582031 8.82941406 19.94679688 9.99085938 19.9375 11.1875 C19.92589844 12.33605469 19.91429687 13.48460937 19.90234375 14.66796875 C19.98807168 17.59300586 20.32150977 20.16316291 21 23 C18.62429457 23.0816082 16.25144159 23.14077222 13.875 23.1875 C13.20984375 23.21263672 12.5446875 23.23777344 11.859375 23.26367188 C6.27290468 23.34582585 2.29017681 22.06115913 -1.875 18.3125 C-3.90329215 14.1432328 -3.60264676 10.03653042 -2.3203125 5.703125 C-1.60416883 3.77976772 -0.80846262 1.88641278 0 0 Z " fill="#60892C" transform="translate(377,541)"/>
<path d="M0 0 C0.33 0 0.66 0 1 0 C1.495 8.415 1.495 8.415 2 17 C1.67 17 1.34 17 1 17 C1 15.02 1 13.04 1 11 C0.39671875 11.34933594 -0.2065625 11.69867188 -0.828125 12.05859375 C-2.02695312 12.74115234 -2.02695312 12.74115234 -3.25 13.4375 C-4.03890625 13.88996094 -4.8278125 14.34242187 -5.640625 14.80859375 C-13.30015766 18.67640412 -24.23939596 18.04961114 -32.375 15.875 C-39.48420901 13.36307948 -45.73926973 9.29847083 -50 3 C-49.67 2.34 -49.34 1.68 -49 1 C-48.4332959 1.56517334 -47.8665918 2.13034668 -47.28271484 2.71264648 C-40.26802251 9.07990414 -34.96380798 10.32296041 -25.625 10.0625 C-24.43213379 10.04960938 -23.23926758 10.03671875 -22.01025391 10.0234375 C-13.27546792 9.66853062 -8.01222871 8.03892524 -1.7734375 1.96875 C-1.18820312 1.3190625 -0.60296875 0.669375 0 0 Z " fill="#908F8F" transform="translate(404,84)"/>
<path d="M0 0 C2.54580229 0.73773843 5.08595609 1.48962083 7.625 2.25 C8.69427734 2.55744141 8.69427734 2.55744141 9.78515625 2.87109375 C14.48187684 4.29303668 18.04849683 6.08311753 22 9 C21.42655063 11.86724686 21.1385485 12.8614515 19 15 C10.71439124 17.88040476 1.63237982 17.19278268 -7 17 C-7 16.67 -7 16.34 -7 16 C-6.37351562 15.95101562 -5.74703125 15.90203125 -5.1015625 15.8515625 C-4.28429687 15.77679687 -3.46703125 15.70203125 -2.625 15.625 C-1.81289063 15.55539062 -1.00078125 15.48578125 -0.1640625 15.4140625 C2.20334191 15.17107412 2.20334191 15.17107412 4 13 C4.31404687 8.76036719 4.32617985 5.63465602 2 2 C1.34 2 0.68 2 0 2 C0 1.34 0 0.68 0 0 Z " fill="#5D852B" transform="translate(466,553)"/>
<path d="M0 0 C4.37950705 0.55073904 8.62241008 1.69159516 12.89257812 2.78515625 C24.94274899 5.84080371 34.221098 5.93889132 46.21972656 2.70922852 C55.54173249 0.23341471 61.36298161 1.76161596 69.89257812 5.97265625 C70.82070313 6.40771484 71.74882812 6.84277344 72.70507812 7.29101562 C77.7481309 9.72945446 81.61797548 12.01188734 85.26757812 16.28515625 C84.60757813 16.61515625 83.94757813 16.94515625 83.26757812 17.28515625 C81.00238437 16.14804703 78.87258762 14.96242023 76.70507812 13.66015625 C76.0731958 13.29277344 75.44131348 12.92539063 74.7902832 12.546875 C72.05007847 10.95247235 69.33870016 9.33008664 66.65820312 7.63671875 C65.93117188 7.19070312 65.20414062 6.7446875 64.45507812 6.28515625 C63.85050781 5.89328125 63.2459375 5.50140625 62.62304688 5.09765625 C55.95835321 2.79872378 48.99845698 4.59040168 42.39257812 6.28515625 C30.19678921 9.1234354 21.4092976 8.20575552 9.34570312 5.07568359 C1.17136236 3.04527338 -6.3386905 2.75090178 -14.73242188 3.28515625 C-11.07527733 -1.45652082 -5.49159578 -0.39994815 0 0 Z " fill="#1F221A" transform="translate(361.732421875,112.71484375)"/>
<path d="M0 0 C3.63 1.65 7.26 3.3 11 5 C10.7178711 7.27203802 10.42397144 9.54261684 10.125 11.8125 C9.96257812 13.07707031 9.80015625 14.34164063 9.6328125 15.64453125 C9 19 9 19 7 22 C5.84237881 20.78192862 4.6993417 19.54998765 3.5625 18.3125 C2.92441406 17.62800781 2.28632813 16.94351562 1.62890625 16.23828125 C-2.09194905 11.1254513 -0.79325876 5.90537078 0 0 Z " fill="#8D8C8C" transform="translate(344,248)"/>
<path d="M0 0 C1.94841398 2.92262096 3.05196385 5.54824514 4.3125 8.8125 C6.30653367 13.70856481 8.32860167 17.22370458 12 21 C9.6875 21.6875 9.6875 21.6875 7 22 C5.625 20.75 5.625 20.75 4 19 C1.67518826 17.98034573 -0.65794699 16.97940398 -3 16 C-3.66 15.34 -4.32 14.68 -5 14 C-4.77551034 8.27551379 -2.98308285 4.71519547 0 0 Z " fill="#8B8A8A" transform="translate(452,202)"/>
<path d="M0 0 C1.62347533 0.18560099 3.24665384 0.38807926 4.85595703 0.67138672 C9.01793676 1.30928523 13.23528073 1.37795329 17.4375 1.5625 C18.35982422 1.60568359 19.28214844 1.64886719 20.23242188 1.69335938 C22.48816163 1.79854931 24.74399499 1.90069107 27 2 C27 2.66 27 3.32 27 4 C23.66674246 4.05874776 20.33362062 4.09384467 17 4.125 C16.06542969 4.14175781 15.13085938 4.15851563 14.16796875 4.17578125 C8.40790037 4.21606145 3.5225718 3.65416655 -2 2 C-1.34 1.34 -0.68 0.68 0 0 Z " fill="#121211" transform="translate(319,113)"/>
<path d="M0 0 C1.24652344 0.01675781 2.49304688 0.03351563 3.77734375 0.05078125 C5.02644531 0.05464844 6.27554687 0.05851562 7.5625 0.0625 C10.71484375 0.36328125 10.71484375 0.36328125 12.71484375 2.36328125 C3.30984375 2.85828125 3.30984375 2.85828125 -6.28515625 3.36328125 C-3.28515625 0.36328125 -3.28515625 0.36328125 0 0 Z " fill="#060804" transform="translate(353.28515625,112.63671875)"/>
<path d="M0 0 C0.33 0 0.66 0 1 0 C0.88490339 1.41750563 0.75746342 2.83401169 0.625 4.25 C0.55539062 5.03890625 0.48578125 5.8278125 0.4140625 6.640625 C-0.01507113 9.085877 -0.78600638 10.84836903 -2 13 C-2.99 13 -3.98 13 -5 13 C-4.54803755 11.39402675 -4.08817673 9.79027492 -3.625 8.1875 C-3.36976563 7.29417969 -3.11453125 6.40085937 -2.8515625 5.48046875 C-2 3 -2 3 0 0 Z " fill="#303030" transform="translate(396,305)"/>
</svg>
